<svg width="27.999999999999996" height="27.999999999999996" xmlns="http://www.w3.org/2000/svg">

 <g>
  <title>background</title>
  <rect fill="none" id="canvas_background" height="402" width="582" y="-1" x="-1"/>
 </g>
 <g>
  <title>Layer 1</title>
  <path id="svg_1" fill-rule="evenodd" fill="#444444" d="m17.7469,15.4149c0.2386,-0.5407 0.3719,-1.1425 0.3719,-1.4133c0,-2.3472 -1.8236,-4.2503 -4.0728,-4.2503c-2.2491,0 -4.07268,1.9031 -4.07268,4.2503c0,2.3471 2.03638,3.887 4.07268,3.887c1.3026,0 2.462,-0.6371 3.2057,-1.6291c0.1949,-0.2594 0.362,-0.5427 0.4952,-0.8446zm-3.7009,0.3486c0.5091,0 0.9745,-0.1951 1.3324,-0.5178c0.4316,-0.3891 0.6216,-0.965 0.6216,-1.2441c0,-1.1736 -0.8284,-2.1252 -1.954,-2.1252c-1.1255,0 -2.046,0.95 -2.046,2.1236c0,0.8104 0.9205,1.7635 2.046,1.7635z" clip-rule="evenodd"/>
  <path id="svg_2" fill-rule="evenodd" fill="#444444" d="m1.09212,14.2724c-0.01591,-0.0197 0.01591,0.0207 0,0c-0.12448,-0.1703 -0.12135,-0.3728 0.00056,-0.5451c0.00893,-0.0126 0.01803,-0.0257 0.02725,-0.0391c3.66107,-5.34501 8.20112,-8.1882 12.89427,-8.1882c4.6883,0 9.2243,2.83554 12.8814,8.1698c0.0694,0.1012 0.1044,0.2052 0.1044,0.3297c0,0.1306 -0.0407,0.2404 -0.1137,0.3466c-3.6561,5.3241 -8.1881,8.1539 -12.8721,8.1539c-4.70508,0 -9.25703,-2.8567 -12.92208,-8.2276zm2.84697,-0.9199c-0.30099,0.3742 -0.30099,0.9197 -0.00001,1.294c3.13509,3.8978 6.66512,5.7284 10.07512,5.7284c3.4101,0 6.9401,-1.8306 10.0752,-5.7284c0.301,-0.3743 0.301,-0.9198 0,-1.294c-3.1351,-3.89775 -6.6651,-5.72737 -10.0752,-5.72737c-3.41,0 -6.94003,1.82962 -10.07511,5.72737z" clip-rule="evenodd"/>
 </g>
</svg>