<svg width="20" height="25" viewBox="0 0 20 25" fill="none" xmlns="http://www.w3.org/2000/svg">
<path fill-rule="evenodd" clip-rule="evenodd" d="M7.5 2.91667C7.5 2.80616 7.5439 2.70018 7.62204 2.62204C7.70018 2.5439 7.80616 2.5 7.91667 2.5H12.0833C12.1938 2.5 12.2998 2.5439 12.378 2.62204C12.4561 2.70018 12.5 2.80616 12.5 2.91667V5H7.5V2.91667ZM15 2.91667V5H18.75C19.0815 5 19.3995 5.1317 19.6339 5.36612C19.8683 5.60054 20 5.91848 20 6.25C20 6.58152 19.8683 6.89946 19.6339 7.13388C19.3995 7.3683 19.0815 7.5 18.75 7.5H1.25C0.918479 7.5 0.600537 7.3683 0.366116 7.13388C0.131696 6.89946 0 6.58152 0 6.25C0 5.91848 0.131696 5.60054 0.366116 5.36612C0.600537 5.1317 0.918479 5 1.25 5H5V2.91667C5 1.30667 6.30667 0 7.91667 0H12.0833C13.6933 0 15 1.30667 15 2.91667ZM4.16 11.125C4.14751 10.9587 4.10186 10.7965 4.02572 10.6481C3.94959 10.4997 3.84452 10.368 3.71671 10.2608C3.58889 10.1536 3.44091 10.0731 3.28149 10.024C3.12208 9.97486 2.95444 9.95816 2.78847 9.97485C2.62249 9.99154 2.46154 10.0413 2.31509 10.1211C2.16864 10.201 2.03965 10.3094 1.93573 10.4398C1.8318 10.5703 1.75505 10.7203 1.70999 10.8809C1.66492 11.0415 1.65246 11.2095 1.67333 11.375L2.77333 22.375C2.84563 23.0944 3.18253 23.7612 3.71868 24.2463C4.25483 24.7313 4.95201 24.9999 5.675 25H14.325C15.825 25 17.0783 23.865 17.2267 22.3733L18.3267 11.3733C18.35 11.0487 18.2458 10.7277 18.0361 10.4787C17.8265 10.2297 17.528 10.0722 17.2041 10.0399C16.8802 10.0075 16.5565 10.1028 16.3017 10.3055C16.047 10.5081 15.8813 10.8021 15.84 11.125L14.74 22.125C14.7297 22.2278 14.6815 22.3232 14.6048 22.3925C14.5281 22.4618 14.4284 22.5001 14.325 22.5H5.675C5.57163 22.5001 5.47192 22.4618 5.39523 22.3925C5.31853 22.3232 5.27034 22.2278 5.26 22.125L4.16 11.125V11.125Z" fill="#565656"/>
</svg>
