<?xml version="1.0" encoding="utf-8"?>
<!-- Generator: Adobe Illustrator 24.3.0, SVG Export Plug-In . SVG Version: 6.00 Build 0)  -->
<svg version="1.1" id="Слой_1" xmlns="http://www.w3.org/2000/svg" xmlns:xlink="http://www.w3.org/1999/xlink" x="0px" y="0px"
	 width="250px" height="250px" viewBox="0 0 250 250" style="enable-background:new 0 0 250 250;" xml:space="preserve">
<g>
	<path style="fill:#6669FB;" d="M125,250L125,250C56,250,0,194,0,125v0C0,56,56,0,125,0h0c69,0,125,56,125,125v0
		C250,194,194,250,125,250z"/>
</g>
<g>
	<path style="fill:#FFFFFF;" d="M169.2,87.9l-24.9,9.5c-3.5-11.3-10-17-19.5-17c-4.4,0-7.9,1.3-10.5,3.8c-2.6,2.5-3.9,5.4-3.9,8.8
		c0,3.9,1.5,7,4.6,9.3c3,2.3,9.4,5.3,19.1,9.1c8.8,3.3,15.8,6.5,20.8,9.7c5.1,3.2,9.1,7.6,12.2,13.1c3.1,5.5,4.7,11.9,4.7,19.2
		c0,12.8-4.4,23.3-13.2,31.5c-8.8,8.2-20.6,12.3-35.4,12.3c-24.8,0-40.7-12.6-47.6-37.7l26.3-7.5c3.2,13.8,10.5,20.7,22,20.7
		c5.2,0,9.5-1.4,12.7-4.1c3.2-2.7,4.9-6.3,4.9-10.7c0-3.3-1.1-6.3-3.4-9c-2.3-2.6-7.5-5.4-15.7-8.4c-10.5-3.7-18.3-7.1-23.5-10.2
		c-5.2-3-9.4-7.4-12.8-13.1c-3.3-5.7-5-12.1-5-19.3c0-12.3,4-22.4,11.9-30.3c7.9-7.9,18.4-11.8,31.5-11.8
		C148.5,56,163.3,66.6,169.2,87.9z"/>
</g>
<g>
</g>
<g>
</g>
<g>
</g>
<g>
</g>
<g>
</g>
<g>
</g>
<g>
</g>
<g>
</g>
<g>
</g>
<g>
</g>
<g>
</g>
<g>
</g>
<g>
</g>
<g>
</g>
<g>
</g>
</svg>
