<?xml version="1.0" standalone="no"?>
<!DOCTYPE svg PUBLIC "-//W3C//DTD SVG 20010904//EN"
 "http://www.w3.org/TR/2001/REC-SVG-20010904/DTD/svg10.dtd">
<svg version="1.0" xmlns="http://www.w3.org/2000/svg"
 width="700.000000pt" height="700.000000pt" viewBox="0 0 700.000000 700.000000"
 preserveAspectRatio="xMidYMid meet">
<metadata>
Created by potrace 1.14, written by Peter Selinger 2001-2017
</metadata>
<g transform="translate(0.000000,700.000000) scale(0.100000,-0.100000)"
fill="#000000" stroke="none">
<path d="M3280 6994 c-19 -2 -84 -9 -145 -14 -579 -56 -1176 -281 -1655 -623
-311 -223 -613 -523 -827 -822 -351 -492 -558 -1036 -635 -1670 -16 -135 -16
-591 0 -730 67 -559 234 -1041 525 -1506 260 -418 676 -831 1102 -1096 452
-281 942 -450 1490 -515 144 -16 586 -16 735 1 1010 114 1898 637 2487 1461
341 479 552 1038 625 1655 7 62 13 220 13 365 0 421 -54 749 -185 1134 -179
526 -466 976 -876 1376 -552 538 -1250 871 -2024 966 -117 15 -553 27 -630 18z
m514 -1584 c458 -78 758 -332 910 -768 l36 -103 -23 -8 c-334 -127 -663 -253
-667 -256 -4 -2 -19 28 -35 68 -91 236 -239 370 -442 399 -201 29 -378 -53
-451 -210 -36 -78 -38 -193 -3 -269 56 -125 180 -199 666 -393 414 -166 586
-262 726 -407 243 -252 340 -579 283 -961 -37 -252 -133 -447 -308 -630 -108
-112 -188 -171 -331 -242 -198 -98 -371 -138 -635 -147 -194 -7 -325 6 -487
47 -417 105 -723 415 -879 887 -21 62 -36 114 -33 116 9 7 730 210 732 206 2
-2 11 -33 21 -69 9 -36 39 -111 67 -168 83 -171 201 -274 366 -317 77 -21 250
-21 327 0 134 35 242 121 294 233 24 50 27 69 27 157 0 93 -2 105 -33 167 -65
133 -191 211 -562 349 -449 166 -641 268 -785 415 -272 277 -366 666 -264
1083 76 308 288 575 569 716 132 66 270 106 436 125 111 12 346 3 478 -20z"/>
</g>
</svg>
