<svg version="1.1" id="Слой_1" xmlns="http://www.w3.org/2000/svg" xmlns:xlink="http://www.w3.org/1999/xlink" x="0px" y="0px"
	 viewBox="0 0 32 32" style="enable-background:new 0 0 32 32;width:27px" xml:space="preserve">
<g>
	<path style="fill:none;" d="M24.5,10V6.5c0-0.6-0.5-1-1-1h-15c-0.6,0-1,0.4-1,1v19c0,0.5,0.4,1,1,1h15c0.5,0,1-0.5,1-1V22"/>
	<path style="fill:none;stroke:#444444;stroke-width:1.3;stroke-miterlimit:10;" d="M24.5,10V6.5c0-0.6-0.5-1-1-1h-15c-0.6,0-1,0.4-1,1v19c0,0.5,0.4,1,1,1h15c0.5,0,1-0.5,1-1V22"/>
</g>
<g>
	<line style="fill:none;stroke:#444444;stroke-width:1.3;stroke-linecap:round;stroke-linejoin:round;stroke-miterlimit:10;" x1="13.1" y1="16" x2="24.5" y2="16"/>
	<polyline style="fill:none;stroke:#444444;stroke-width:1.3;stroke-linecap:round;stroke-linejoin:round;stroke-miterlimit:10;" points="18.1,12.5 13.1,16 18.1,19.5 	"/>
</g>
</svg>
