<svg version="1.1" id="Слой_1" xmlns="http://www.w3.org/2000/svg" xmlns:xlink="http://www.w3.org/1999/xlink" x="0px" y="0px"
	 viewBox="0 0 32 32" style="enable-background:new 0 0 32 32;width:32px" xml:space="preserve">
<g>
	<circle style="fill:none;" cx="16" cy="10.4" r="3.1"/>
	<path style="fill:#444444;" d="M16,7.9c1.4,0,2.5,1.1,2.5,2.5s-1.1,2.5-2.5,2.5s-2.5-1.1-2.5-2.5S14.6,7.9,16,7.9 M16,6.6
		c-2.1,0-3.8,1.7-3.8,3.8s1.7,3.8,3.8,3.8s3.8-1.7,3.8-3.8S18.1,6.6,16,6.6L16,6.6z"/>
</g>
<path style="fill:none;stroke:#444444;stroke-width:1.4;stroke-linecap:round;stroke-miterlimit:10;" d="M24.1,25.4"/>
<path style="fill:none;stroke:#444444;stroke-width:1.4;stroke-linecap:round;stroke-miterlimit:10;" d="M7.9,25.4c0-5.4,3.6-9.7,8.1-9.7c1.4,0,2.6,0.4,3.8,1.1"/>
<g>
	<line style="fill:none;stroke:#444444;stroke-width:1.4;stroke-linecap:round;stroke-miterlimit:10;" x1="18.8" y1="22.2" x2="25.3" y2="22.1"/>
	<line style="fill:none;stroke:#444444;stroke-width:1.4;stroke-linecap:round;stroke-miterlimit:10;" x1="22.1" y1="25.4" x2="22" y2="18.9"/>
</g>
</svg>
