<svg version="1.1" id="Слой_1" xmlns="http://www.w3.org/2000/svg" xmlns:xlink="http://www.w3.org/1999/xlink" x="0px" y="0px"
	 viewBox="0 0 32 32" style="enable-background:new 0 0 32 32;" xml:space="preserve">
<g>
	<path style="fill:#eee;" d="M11.7,25.6L22.8,9.6c0.3-0.3,0.2-0.8-0.3-1.3l-2.1-1.6C20,6.4,19.4,6.5,19,6.9L7.8,22.8"/>
</g>
<g>
	<path style="fill:#eee;" d="M6.7,24.3L6.1,29c-0.2,0.5,0.3,0.8,0.6,0.4l4-2.1"/>
</g>
<g>
	<path style="fill:#eee;" d="M24.8,7c-0.3,0.3-0.9,0.5-1.4,0.1l-2.3-1.7c-0.4-0.2-0.4-0.8-0.4-1.3L22,2.4c0.3-0.3,0.9-0.2,1.4-0.1L25.6,4
		C26,4.3,26.3,4.9,26,5.3L24.8,7z"/>
</g>
</svg>
